<?xml version="1.0" encoding="utf-8"?>
<!-- Generator: Adobe Illustrator 27.4.0, SVG Export Plug-In . SVG Version: 6.00 Build 0)  -->
<svg version="1.1" id="Capa_1" xmlns="http://www.w3.org/2000/svg" xmlns:xlink="http://www.w3.org/1999/xlink" x="0px" y="0px"
	 viewBox="0 0 64 64" style="enable-background:new 0 0 64 64;" xml:space="preserve">
<style type="text/css">
	.st0{fill:#FFFFFF;}
</style>
<path class="st0" d="M49.9,54.1c-8,2.4-15.5,1.3-19.6,0.2c-0.1,1.7-0.3,2.4-0.6,2.6c-0.3,0.4-2.9,1.8-4.4-0.3
	c-0.6-1-0.9-2.8-1.1-4.5c-9.2-4.2-13.5-10.3-13.6-10.6c-0.2-0.2-2.3-2.4-0.2-5.1c2-2.4,8.4-4.9,14.2-5.8c0.2-4.9,0.8-8.8,1.5-10.5
	c0.8-2,1.9-0.2,2.8,1.1c0.8,1,1.2,5.4,1.3,8.8c3.8-0.2,6.1,0.1,10.3,0.9c5.5,0.9,9.2,3.8,8.9,7c-0.3,3.1-3.1,4.5-4.3,4.5
	s-2.9-0.7-2.9-0.7c-1.3-0.6-0.1-1.1,1.3-1.8c1.6-0.8,1.3-1.6,1.3-1.6c-0.6-1.8-7.8-3-14.9-3c0,3.9,0.2,10.5,0.3,14.3
	c5,0.9,8.7,0.7,8.7,0.7S57.2,50,57.7,38.4c0.6-11.6-18.2-22.8-32-26.3C11.9,8.5,4,11,3.4,11.4c-0.7,0.4-0.1,0.5-0.1,0.5
	s0.7,0.1,2.1,0.6s0.3,1.1,0.3,1.1c-2.4,0.8-5,0.3-5.5-0.7c-0.5-1.1,0.3-2,1.3-3.4c0.9-1.5,2-1.4,2-1.4c17.1-6,37.9,4.7,37.9,4.7
	C61,22.5,64.4,34.1,64,38.6C63.7,43,62,50.5,49.9,54.1 M12.4,38.1c-1.9,0.9-0.6,2.3-0.6,2.3c3.6,3.9,8.1,6.3,12.4,7.9
	c0.5-6.7,0.4-9.2,0.4-12.5C18,36.2,14.2,37.3,12.4,38.1"/>
</svg>
